<?xml version="1.0" encoding="utf-8"?>
<!-- Generator: Adobe Illustrator 19.1.0, SVG Export Plug-In . SVG Version: 6.00 Build 0)  -->
<svg version="1.1" id="Layer_2" xmlns="http://www.w3.org/2000/svg" xmlns:xlink="http://www.w3.org/1999/xlink" x="0px" y="0px"
	 viewBox="210 111 960 500" style="enable-background:new 210 111 960 500;" xml:space="preserve">
<style type="text/css">
	.st0{fill:url(#SVGID_1_);}
	.st1{opacity:0.3;fill:url(#SVGID_2_);enable-background:new    ;}
	.st2{opacity:0.3;fill:url(#SVGID_3_);enable-background:new    ;}
	.st3{opacity:0.3;fill:url(#SVGID_4_);enable-background:new    ;}
</style>
<linearGradient id="SVGID_1_" gradientUnits="userSpaceOnUse" x1="1170" y1="361" x2="210.0003" y2="361">
	<stop  offset="0" style="stop-color:#4591ED"/>
	<stop  offset="1" style="stop-color:#9394FF"/>
</linearGradient>
<rect x="210" y="111" class="st0" width="960" height="500"/>
<linearGradient id="SVGID_2_" gradientUnits="userSpaceOnUse" x1="210.0001" y1="235.4388" x2="1170.0001" y2="235.4388" gradientTransform="matrix(-1 0 0 1 1380 -9.2)">
	<stop  offset="0" style="stop-color:#22ADF6"/>
	<stop  offset="1" style="stop-color:#7CE490"/>
</linearGradient>
<path class="st1" d="M210,310.5l16.7-51.2l9.2-9.7l10.4,50.6l11.6-25.8l10-4.3l21-28.7l12.4,18l11.2-3.1l9.2-23.4l9.2-1.3l13.2,79.3
	l9.8-78.7l22.2-11.4l9.8,28.7H398l10.4-22l11.2,28.8l11.2-9.6l11.8,46.9l7.5-37.8l14.7-1.8l9.2-17.8l11.8,26.3l12.2,7.6l9.4,36.2
	l20.1-67.9l13.8,57.5l9.8-72.6l10.4,3.6l20.3,40.2l11.8-28.7l11,8.3l12.4-1.3l8.5-22.2l11.8-4.9c0,0,21.6,55.3,21.6,57.7
	c0,2.3,8.5-71.5,8.5-71.5l13.2,19.8l8.8,41.4l13.4,4l9.2-56.2l21.6,38.4l19.1-21.6l13.8,11.4l9.8-13.9c0,0,9,43.8,9,46.9
	s15.1-45.6,15.1-45.6l10.4,33l14.4-49.9l17.1-5.4l12.4,10.3l9.2-7.6l11.2,8.8c0,0,12.4,40.2,12.4,43.8s11.8,12.1,11.8,12.1l9.2-48.1
	l10.4,43.6l10.2-33.9l10.8,13.5c0,0,12.4,59.6,12.4,61.4s10.4-88.3,10.4-88.3l5.9,30.6l16.3,16.6l10.4-71.4c0,0,21,79.8,21,81.6
	s8.5-57.7,8.5-57.7l14.6,42.7l10.4-63.1l8.5,33.7l9.8,20.9l15.7-42l9.2,127l11.2-73.5l21-50.5l44.4,27V111H210V310.5L210,310.5z"/>
<linearGradient id="SVGID_3_" gradientUnits="userSpaceOnUse" x1="210.0001" y1="177.143" x2="1170.0004" y2="177.143" gradientTransform="matrix(-1 0 0 1 1380 -9.2)">
	<stop  offset="0" style="stop-color:#00C9FF"/>
	<stop  offset="1" style="stop-color:#7CE490"/>
</linearGradient>
<path class="st2" d="M210,224.9l16.3-29.7l21,18.9l11,5.4l11.4-16.8l21.6-12.6l9.8,12.1l21-24l12.4-3.6l9.8,39.1l21-35.5h10.8
	l10.4,17.1l11.2-17.1h12.4l9.8,17.1l15.1-11.4l19.1,6.8l7.9,13.9l12.4-28.8l9.2,23.4c0,1.3,9.2,0,9.2,0l13.2,21.6l9.2-25.6l11.8-4.5
	l10.4,23.4l12.4-38.4l26.9,23.4l17.1-7.2l10.4-17.5l9.2,20.7l13.2-17.1l21.6-5.4l9.8,22.5l9.8-23.1l22,27l22.2-24.9l22.2,20.7
	l10.4-17.1l11.2,13.2h18.3l11,15l13.8-30.6l21.2,19.6l13.2-22l10.4-7.7l10.4,9.6l20.3,0.5l23,49.2l13.2-36l10.4,6.3l19.7-5
	l11.2,34.8l10.4-41.1l21,15.3l12.4-33.7l20.3,39.6l11.8-34.2l10.4,28.3l12.4-33.7l9.2,25.2l8.5,8.5l13.2-25.2l11.8,31.2l9.2-27h11.8
	l11.8-7.7l17.7,16.2l5.9,18.6l19.7-3.6V111H210L210,224.9z"/>
<linearGradient id="SVGID_4_" gradientUnits="userSpaceOnUse" x1="210.0001" y1="155.1582" x2="1170.0001" y2="155.1582" gradientTransform="matrix(-1 0 0 1 1380 -9.2)">
	<stop  offset="0" style="stop-color:#22ADF6"/>
	<stop  offset="1" style="stop-color:#7CE490"/>
</linearGradient>
<path class="st3" d="M210,170.3l14.7-13.3l11.2,7.9l9.8,2.3l12.2,10.3l21.2-20.5l20.3,7.9l14.4-16.8l18.3,1.3l12.4,28.3l20.3-28.8
	l20.3,12.3l9.2-10.5l13.2-1.3l15.1,11.7l27.1-4l12.2,7.9l11.8-11.4l11.2,11.4l10.4-7.9l10.4,16.4l9.2-16.4l13.2-3.4l9.8,16.8
	l11.8-26.5l9.8,8.5l16.3,4.7l6.5,7.9l21-16.8l13.8,5.9l20.3-1.8l10.4-8.5l11.2,13.2l11.2-9.6l19.3,17.5l23.2-15l21,11.2l11.2-12.3
	l11.2,8.3h19.1l10.4,11l13.2-16.2l23.6,13.2l11.2-16.2l11.8-3.6l5.3,6.7l12.4-1.8l21.6,7l11.8,23.6l12.4-21.1l32.1-2.5
	c0,0,11.2,20,11.2,20.5c0,0.5,11.2-24.3,11.2-24.3h21.6l9.8-11.7l9.8,15.5l12.4,7.9l11.8-15.7l9.8,15.7l9.8-19.8l11.2,11.9l10.4,7.9
	l11.8-16.8l10.4,16.8l11.2-16.8h25l12.4,8.8h28.9V111H210V170.3z"/>
</svg>
