<?xml version="1.0" encoding="utf-8"?>
<!-- Generator: Adobe Illustrator 19.1.0, SVG Export Plug-In . SVG Version: 6.00 Build 0)  -->
<svg version="1.1" id="Sparkline_1_" xmlns="http://www.w3.org/2000/svg" xmlns:xlink="http://www.w3.org/1999/xlink" x="0px"
	 y="0px" viewBox="0 0 200 32" style="enable-background:new 0 0 200 32;" xml:space="preserve">
<style type="text/css">
	.st0{fill:#F5F6F7;}
	.st1{fill:url(#Graph_2_);}
</style>
<g id="Columns">
	<rect class="st0" width="10" height="32"/>
	<rect x="10" class="st0" width="10" height="32"/>
	<rect x="20" class="st0" width="10" height="32"/>
	<rect x="30" class="st0" width="10" height="32"/>
	<rect x="40" class="st0" width="10" height="32"/>
	<rect x="50" class="st0" width="10" height="32"/>
	<rect x="60" class="st0" width="10" height="32"/>
	<rect x="70" class="st0" width="10" height="32"/>
	<rect x="80" class="st0" width="10" height="32"/>
	<rect x="90" class="st0" width="10" height="32"/>
	<rect x="100" class="st0" width="10" height="32"/>
	<rect x="110" class="st0" width="10" height="32"/>
	<rect x="120" class="st0" width="10" height="32"/>
	<rect x="130" class="st0" width="10" height="32"/>
	<rect x="140" class="st0" width="10" height="32"/>
	<rect x="150" class="st0" width="10" height="32"/>
	<rect x="160" class="st0" width="10" height="32"/>
	<rect x="170" class="st0" width="10" height="32"/>
	<rect x="180" class="st0" width="10" height="32"/>
	<rect x="190" class="st0" width="10" height="32"/>
</g>
<g id="Rows">
	<rect class="st0" width="200" height="4"/>
	<rect y="4" class="st0" width="200" height="4"/>
	<rect y="8" class="st0" width="200" height="4"/>
	<rect y="12" class="st0" width="200" height="4"/>
	<rect y="16" class="st0" width="200" height="4"/>
	<rect y="20" class="st0" width="200" height="4"/>
	<rect y="24" class="st0" width="200" height="4"/>
	<rect y="28" class="st0" width="200" height="4"/>
</g>
<linearGradient id="Graph_2_" gradientUnits="userSpaceOnUse" x1="0" y1="18" x2="200" y2="18">
	<stop  offset="0" style="stop-color:#00C9FF"/>
	<stop  offset="1" style="stop-color:#9394FF"/>
</linearGradient>
<polygon id="Graph_1_" class="st1" points="0,28 10,28 20,24 30,28 40,28 50,28 60,28 70,24 80,24 90,20 110,20 120,4 160,4 170,28 
	190,28 200,24 200,32 0,32 "/>
</svg>
