<?xml version="1.0" encoding="utf-8"?>
<!-- Generator: Adobe Illustrator 19.1.0, SVG Export Plug-In . SVG Version: 6.00 Build 0)  -->
<svg version="1.1" id="Layer_1" xmlns="http://www.w3.org/2000/svg" xmlns:xlink="http://www.w3.org/1999/xlink" x="0px" y="0px"
	 viewBox="0 0 323 63" style="enable-background:new 0 0 323 63;" xml:space="preserve">
<style type="text/css">
	.st0{fill:#575E6B;}
</style>
<g id="influx">
	<path id="x" class="st0" d="M188.8,31.6l-6.3-13.7l6.7-1.3l4.4,10.3l7.2-9.8h7.7l-11.9,15.3l6.4,13.7h-7.2l-4-8.4l-7,8.4h-7.6
		L188.8,31.6z"/>
	<path id="u_1_" class="st0" d="M158.9,37.9c-0.1,0.4-0.1,0.7-0.1,0.8c0,0.8,0.4,1.3,1.5,1.3c1.9,0,6-1.8,8.7-3.4l3.3-18.8l7.3-1
		l-5.2,29.5h-6.1l0.1-3c-3.8,2.1-8.4,3.6-11.8,3.6c-4,0-5.3-2.6-5.3-5.8c0-1.1,0.1-1.9,0.3-2.9l3.6-20.5l7.3-1L158.9,37.9z"/>
	<path id="fl" class="st0" d="M136.8,23h-6.7l-4.4,24.6c-0.8,4.7-2.6,7.6-6.3,11l-4.6-4.3c2.3-2.3,3.3-4.2,3.9-7.3l4.2-23.9h-4.5
		l1-5.8h4.5l0.7-4.2c1.1-6.1,3.6-8.9,10.9-8.9c2.4,0,5.5,0.4,9.1,1.2l7.3-1l-7.4,41.9h-7.2l6.3-35.5c-2.9-0.5-5.8-0.9-8.1-0.9
		c-2.5,0-3.5,0.8-3.8,2.9l-0.8,4.5h7.2L136.8,23z"/>
	<path id="n" class="st0" d="M108,25.5c0.1-0.3,0.1-0.7,0.1-0.8c0-0.8-0.4-1.3-1.5-1.3c-1.9,0-6,1.8-8.7,3.4l-3.4,19.3h-7.2l5-28.5
		l6.2-1.1l-0.1,3.5c3.8-2.1,8.4-3.6,11.8-3.6c4,0,5.3,2.6,5.3,5.8c0,1.1-0.1,1.9-0.3,2.9l-3.7,21h-7.2L108,25.5z"/>
	<path id="i" class="st0" d="M79.6,17.7l7.3-1l-5.2,29.5h-7.2L79.6,17.7z M81.8,5.3l7.3-1l-1.4,8.1l-7.3,1.1L81.8,5.3z"/>
</g>
<g id="cloud">
	<path id="d" class="st0" d="M313.3,42c-3.3,2.9-7.7,4.8-11.9,4.8c-3.7,0-5.7-1.3-5.7-4.9c0-0.7,0.1-1.4,0.2-2.1l2.2-12.5
		c1.4-7.9,5-10.7,12.4-10.7c1.9,0,5.3,0.4,7,1l2.1-12.2l3.4-0.5l-7.3,41.4h-3L313.3,42z M316.9,20.5c-2.3-0.6-4.7-1-7-1
		c-5.3,0-7.5,1.9-8.7,8.4l-2.1,11.9c-0.1,0.7-0.2,1.3-0.2,1.7c0,1.8,0.9,2.3,2.7,2.3c3.7,0,8.4-2.4,12.1-5.7L316.9,20.5z"/>
	<path id="u" class="st0" d="M271.7,40.8c-0.1,0.4-0.1,0.8-0.1,1.1c0,1.2,0.8,1.8,2.4,1.8c3,0,8.7-2.7,12.4-5l3.8-21.3l3.5-0.5
		l-5.2,29.3h-2.9l0.5-4.2c-3.3,2.3-9,4.8-12.7,4.8c-3.6,0-5.1-1.8-5.1-4.8c0-0.6,0.1-1.2,0.2-1.8l4-22.8l3.5-0.5L271.7,40.8z"/>
	<path id="o" class="st0" d="M241,38.7c0-0.8,0.1-1.7,0.2-2.6l1.6-8.8c1.1-6.4,4.5-10.7,13.1-10.7c6.4,0,9.7,3.3,9.7,8.2
		c0,0.7-0.1,1.4-0.2,2.2l-1.7,9.5c-1.1,6.4-4.7,10.4-13.1,10.4C243.6,46.8,241,43.3,241,38.7z M261.9,26.9c0.1-0.7,0.2-1.4,0.2-2
		c0-3.6-2.1-5.4-6.8-5.4c-5.5,0-8.3,2.6-9.2,7.7l-1.6,9.1c-0.1,0.8-0.2,1.6-0.2,2.2c0,3.4,1.9,5.2,6.7,5.2c5.4,0,8.3-2.5,9.2-7.5
		L261.9,26.9z"/>
	<path id="l" class="st0" d="M237.6,5.3l3.4-0.5l-7.3,41.4h-3.3L237.6,5.3z"/>
	<path id="c" class="st0" d="M230.3,20.6c-2.3-0.7-4.8-1-6.9-1c-5.3,0-7.2,1.9-8.4,8.4l-2,11.6c-0.1,0.5-0.1,0.9-0.1,1.3
		c0,2.3,1.4,3,4.3,3s6.1-0.7,9.4-2l0.5,2.8c-3.1,1.4-6.6,2.2-10.4,2.2c-4.3,0-7.2-2-7.2-6c0-0.5,0.1-1.2,0.2-1.8l2.1-11.8
		c1.4-7.9,4.5-10.7,11.9-10.7c2.3,0,5.4,0.5,7.2,1.2L230.3,20.6z"/>
</g>
<path id="cuboctahedron" class="st0" d="M59,36.8L53,10.8c-0.2-1-1.2-2.1-2.2-2.4L23.7,0.1c-1-0.3-2.4,0-3.2,0.7L1,18.9
	c-0.8,0.7-1.2,2.1-1,3.1l6.3,27.6c0.2,1,1.2,2.1,2.2,2.4L34,59.9c1,0.3,2.4,0,3.2-0.7L58,39.9C58.8,39.2,59.2,37.8,59,36.8z
	 M26.9,6.4l17.7,5.5c0.7,0.2,0.7,0.5,0,0.7l-9.3,2.1c-0.7,0.2-1.7-0.1-2.2-0.7l-6.5-7C26.1,6.4,26.2,6.2,26.9,6.4z M38,38.2
	c0.2,0.7-0.3,1.1-1,0.9l-19.2-5.9c-0.7-0.2-0.8-0.8-0.3-1.3l14.7-13.6c0.5-0.5,1.1-0.3,1.3,0.4L38,38.2z M6.4,20.8L22,6.4
	c0.5-0.5,1.4-0.5,1.9,0.1l7.8,8.4c0.5,0.5,0.5,1.4-0.1,1.9L16,31.1c-0.5,0.5-1.4,0.5-1.9-0.1l-7.8-8.4C5.9,22.1,5.9,21.3,6.4,20.8z
	 M10.2,43.8L6.1,25.7c-0.2-0.7,0.1-0.8,0.6-0.3l6.5,7c0.5,0.5,0.7,1.5,0.5,2.2l-2.8,9.2C10.7,44.5,10.4,44.5,10.2,43.8z M34.6,53.4
	c-0.2,0.7-1,1.1-1.6,0.9L12.7,48c-0.7-0.2-1.1-1-0.9-1.6l3.4-11c0.2-0.7,1-1.1,1.6-0.9l20.3,6.2c0.7,0.2,1.1,1,0.9,1.6L34.6,53.4z
	 M51,39.5L37.4,52.1c-0.5,0.5-0.8,0.3-0.6-0.4l2.8-9.2c0.2-0.7,1-1.4,1.7-1.6l9.3-2.1C51.4,38.8,51.5,39,51,39.5z M52.5,36.8
	l-11.2,2.6c-0.7,0.2-1.4-0.3-1.6-1L35,17.7c-0.2-0.7,0.3-1.4,1-1.6l11.2-2.6c0.7-0.2,1.4,0.3,1.6,1l4.7,20.7
	C53.6,36,53.2,36.7,52.5,36.8z"/>
</svg>
